# xmcd CD Database Entry
#
# Track frame offsets:
# 150
# 12040
# 22636
# 37907
# 56860
# 70531
# 83011
# 95207
# 108954
# 120148
# 139364
#
# Disc length: 2008 seconds
#
# Revision: 1
# Processed by: cddbd v1.4b41PL1 Copyright (c) Steve Scherf et al.
# Submitted via: tcd 2.0b
#
DISCID=7c07d60b
DTITLE=Trent Summar and The New Row Mob - Trent Summar and The New Row M
DTITLE=ob
DYEAR=1900
DGENRE=
TTITLE0=Paint Your Name In Purple
TTITLE1=New Money
TTITLE2=Too Busy Missing You
TTITLE3=It Never Rains In Southern California
TTITLE4=I'm Country
TTITLE5=Colene
TTITLE6=The Beat Don't Ever Stop
TTITLE7=Starletta
TTITLE8=Metal Stone Glass and Wood
TTITLE9=Be So Blue
TTITLE10=Lookout Mountain
EXTD=
EXTT0=
EXTT1=
EXTT2=
EXTT3=
EXTT4=
EXTT5=
EXTT6=
EXTT7=
EXTT8=
EXTT9=
EXTT10=
PLAYORDER=
